<svg xmlns="http://www.w3.org/2000/svg" viewBox="0 0 1000 280" role="img" aria-labelledby="title desc">
  <title id="title">AreaForge Wordmark Dark Background</title>
  <desc id="desc">AreaForge standalone outlined wordmark.</desc>
  <defs>
    <linearGradient id="forgeWord" x1="405.08" y1="68" x2="794.00" y2="180" gradientUnits="userSpaceOnUse">
      <stop offset="0" stop-color="#18AAA6"/>
      <stop offset="0.54" stop-color="#35D7C5"/>
      <stop offset="0.82" stop-color="#FFD75F"/>
      <stop offset="1" stop-color="#F05F3D"/>
    </linearGradient>
  </defs>
  <path d="M124.86000000000001 136.36 137.88 99.67999999999999H138.16L150.76 136.36ZM126.96000000000001 75.03999999999999 89.16 175.0H111.28L119.12 152.74H156.5L164.06 175.0H186.88L149.5 75.03999999999999ZM193.46 102.61999999999999V175.0H213.34V142.38Q213.34 137.48 214.32 133.27999999999997Q215.3 129.07999999999998 217.61 125.92999999999999Q219.92000000000002 122.78 223.70000000000002 120.96Q227.48000000000002 119.13999999999999 232.94 119.13999999999999Q234.76000000000002 119.13999999999999 236.72000000000003 119.35Q238.68 119.56 240.08 119.84V101.36Q237.70000000000002 100.66 235.74 100.66Q231.96 100.66 228.46 101.78Q224.96 102.89999999999999 221.88 104.92999999999999Q218.8 106.96 216.42000000000002 109.82999999999998Q214.04000000000002 112.69999999999999 212.64000000000001 116.06H212.36V102.61999999999999ZM296.64000000000004 131.04H264.3Q264.44 128.94 265.21000000000004 126.28Q265.98 123.62 267.87 121.24Q269.76 118.85999999999999 272.90999999999997 117.24999999999999Q276.06 115.63999999999999 280.82 115.63999999999999Q288.1 115.63999999999999 291.67 119.55999999999999Q295.24 123.47999999999999 296.64000000000004 131.04ZM264.3 143.64H316.52000000000004Q317.08000000000004 135.24 315.12 127.54Q313.16 119.84 308.75 113.82Q304.34000000000003 107.8 297.48 104.22999999999999Q290.62 100.66 281.38 100.66Q273.12 100.66 266.33000000000004 103.6Q259.54 106.53999999999999 254.64000000000001 111.64999999999999Q249.74 116.75999999999999 247.08 123.75999999999999Q244.42000000000002 130.76 244.42000000000002 138.88Q244.42000000000002 147.28 247.01000000000002 154.28Q249.60000000000002 161.28 254.36 166.32Q259.12 171.36 265.98 174.09Q272.84000000000003 176.82 281.38 176.82Q293.70000000000005 176.82 302.38 171.22Q311.06 165.62 315.26 152.6H297.76Q296.78000000000003 155.96 292.44000000000005 158.97Q288.1 161.98 282.08000000000004 161.98Q273.68 161.98 269.20000000000005 157.64Q264.72 153.3 264.3 143.64ZM327.44000000000005 124.88Q327.86 117.88 330.94000000000005 113.25999999999999Q334.02000000000004 108.64 338.78000000000003 105.84Q343.54 103.03999999999999 349.49 101.85Q355.44000000000005 100.66 361.46000000000004 100.66Q366.92 100.66 372.52 101.42999999999999Q378.12 102.19999999999999 382.74 104.44Q387.36 106.67999999999999 390.3 110.66999999999999Q393.24 114.66 393.24 121.24V158.9Q393.24 163.8 393.8 168.28Q394.36 172.76 395.76000000000005 175.0H375.6Q375.04 173.32 374.69000000000005 171.57Q374.34000000000003 169.82 374.20000000000005 168.0Q369.44000000000005 172.9 363.00000000000006 174.86Q356.56000000000006 176.82 349.84000000000003 176.82Q344.66 176.82 340.18000000000006 175.56Q335.70000000000005 174.3 332.34000000000003 171.64Q328.98 168.98 327.09000000000003 164.92000000000002Q325.20000000000005 160.86 325.20000000000005 155.26Q325.20000000000005 149.1 327.37 145.11Q329.54 141.12 332.97 138.74Q336.40000000000003 136.36 340.81000000000006 135.17000000000002Q345.22 133.98 349.70000000000005 133.27999999999997Q354.18 132.57999999999998 358.52 132.16Q362.86 131.74 366.22 130.9Q369.58000000000004 130.06 371.5400000000001 128.45Q373.50000000000006 126.84 373.36 123.75999999999999Q373.36 120.53999999999999 372.31000000000006 118.64999999999999Q371.26000000000005 116.75999999999999 369.51000000000005 115.71Q367.76000000000005 114.66 365.45000000000005 114.31Q363.14000000000004 113.96 360.48 113.96Q354.6 113.96 351.24 116.47999999999999Q347.88000000000005 119.0 347.32000000000005 124.88ZM373.36 139.57999999999998Q372.1 140.7 370.21000000000004 141.32999999999998Q368.32000000000005 141.95999999999998 366.15000000000003 142.38Q363.98 142.8 361.6 143.07999999999998Q359.22 143.35999999999999 356.84000000000003 143.78Q354.6 144.2 352.43000000000006 144.89999999999998Q350.26000000000005 145.6 348.65000000000003 146.79Q347.04 147.98 346.06000000000006 149.8Q345.08000000000004 151.62 345.08000000000004 154.42Q345.08000000000004 157.07999999999998 346.06000000000006 158.89999999999998Q347.04 160.72 348.72 161.76999999999998Q350.40000000000003 162.82 352.64000000000004 163.24Q354.88000000000005 163.66 357.26000000000005 163.66Q363.14000000000004 163.66 366.36 161.7Q369.58000000000004 159.74 371.12 157.01Q372.66 154.28 373.01 151.48000000000002Q373.36 148.68 373.36 147.0Z" fill="#F4FBF8"/>
  <path d="M414.74000000000007 75.03999999999999V175.0H436.72V133.7H478.58000000000004V116.62H436.72V93.52H485.02000000000004V75.03999999999999ZM513.3000000000001 138.88Q513.3000000000001 134.54 514.1400000000001 130.33999999999997Q514.98 126.13999999999999 517.01 122.91999999999999Q519.0400000000001 119.69999999999999 522.4000000000001 117.66999999999999Q525.76 115.63999999999999 530.8000000000001 115.63999999999999Q535.84 115.63999999999999 539.27 117.66999999999999Q542.7 119.69999999999999 544.73 122.91999999999999Q546.76 126.13999999999999 547.6 130.33999999999997Q548.44 134.54 548.44 138.88Q548.44 143.22 547.6 147.35Q546.76 151.48 544.73 154.76999999999998Q542.7 158.06 539.27 160.01999999999998Q535.84 161.98 530.8000000000001 161.98Q525.76 161.98 522.4000000000001 160.01999999999998Q519.0400000000001 158.06 517.01 154.76999999999998Q514.98 151.48 514.1400000000001 147.35Q513.3000000000001 143.22 513.3000000000001 138.88ZM493.42 138.88Q493.42 147.56 496.08000000000004 154.56Q498.74 161.56 503.64 166.53Q508.54 171.5 515.4 174.16Q522.26 176.82 530.8000000000001 176.82Q539.34 176.82 546.27 174.16Q553.2 171.5 558.1 166.53Q563.0 161.56 565.6600000000001 154.56Q568.32 147.56 568.32 138.88Q568.32 130.2 565.6600000000001 123.13Q563.0 116.06 558.1 111.09Q553.2 106.11999999999999 546.27 103.38999999999999Q539.34 100.66 530.8000000000001 100.66Q522.26 100.66 515.4 103.38999999999999Q508.54 106.11999999999999 503.64 111.09Q498.74 116.06 496.08000000000004 123.13Q493.42 130.2 493.42 138.88ZM581.1999999999999 102.61999999999999V175.0H601.08V142.38Q601.08 137.48 602.06 133.27999999999997Q603.04 129.07999999999998 605.3499999999999 125.92999999999999Q607.66 122.78 611.44 120.96Q615.22 119.13999999999999 620.68 119.13999999999999Q622.5 119.13999999999999 624.46 119.35Q626.42 119.56 627.8199999999999 119.84V101.36Q625.4399999999999 100.66 623.48 100.66Q619.7 100.66 616.2 101.78Q612.7 102.89999999999999 609.62 104.92999999999999Q606.54 106.96 604.16 109.82999999999998Q601.78 112.69999999999999 600.38 116.06H600.1V102.61999999999999ZM669.4 157.92Q664.78 157.92 661.7 155.95999999999998Q658.62 154.0 656.73 150.92000000000002Q654.84 147.84 654.07 143.99Q653.3000000000001 140.14 653.3000000000001 136.22Q653.3000000000001 132.16 654.21 128.45Q655.12 124.74 657.1500000000001 121.87Q659.1800000000001 119.0 662.19 117.32Q665.2 115.63999999999999 669.4 115.63999999999999Q674.3000000000001 115.63999999999999 677.52 117.46Q680.74 119.28 682.7 122.36Q684.6600000000001 125.44 685.5 129.43Q686.34 133.42 686.34 137.9Q686.34 141.82 685.29 145.39Q684.24 148.96 682.1400000000001 151.76Q680.0400000000001 154.56 676.82 156.24Q673.6 157.92 669.4 157.92ZM705.24 170.38V102.61999999999999H686.34V112.28H686.0600000000001Q682.4200000000001 105.97999999999999 677.03 103.32Q671.64 100.66 664.5 100.66Q656.94 100.66 651.1300000000001 103.6Q645.32 106.53999999999999 641.4000000000001 111.50999999999999Q637.48 116.47999999999999 635.45 122.99Q633.4200000000001 129.5 633.4200000000001 136.5Q633.4200000000001 143.92 635.1700000000001 150.57Q636.9200000000001 157.22 640.7 162.19Q644.48 167.16 650.36 170.03Q656.24 172.9 664.36 172.9Q670.94 172.9 676.8900000000001 170.17000000000002Q682.84 167.44 686.0600000000001 161.7H686.34V171.22Q686.48 178.92 682.63 183.95999999999998Q678.78 189.0 670.38 189.0Q665.0600000000001 189.0 661.0 186.82999999999998Q656.94 184.66 655.5400000000001 179.06H635.8000000000001Q636.22 185.22 639.23 189.63Q642.24 194.04 646.79 196.83999999999997Q651.34 199.64 656.87 200.97Q662.4 202.3 667.72 202.3Q680.1800000000001 202.3 687.6 198.94Q695.02 195.58 698.94 190.75Q702.86 185.92000000000002 704.05 180.32Q705.24 174.72 705.24 170.38ZM769.92 131.04H737.58Q737.72 128.94 738.49 126.28Q739.26 123.62 741.15 121.24Q743.04 118.85999999999999 746.19 117.24999999999999Q749.34 115.63999999999999 754.1 115.63999999999999Q761.38 115.63999999999999 764.95 119.55999999999999Q768.52 123.47999999999999 769.92 131.04ZM737.58 143.64H789.8Q790.36 135.24 788.4000000000001 127.54Q786.44 119.84 782.03 113.82Q777.62 107.8 770.76 104.22999999999999Q763.9 100.66 754.66 100.66Q746.4 100.66 739.6099999999999 103.6Q732.8199999999999 106.53999999999999 727.92 111.64999999999999Q723.02 116.75999999999999 720.3599999999999 123.75999999999999Q717.6999999999999 130.76 717.6999999999999 138.88Q717.6999999999999 147.28 720.29 154.28Q722.88 161.28 727.64 166.32Q732.4 171.36 739.26 174.09Q746.12 176.82 754.66 176.82Q766.98 176.82 775.6600000000001 171.22Q784.34 165.62 788.54 152.6H771.04Q770.06 155.96 765.72 158.97Q761.38 161.98 755.36 161.98Q746.96 161.98 742.48 157.64Q738.0 153.3 737.58 143.64Z" fill="url(#forgeWord)"/>
  <path d="M92 220H794.00" stroke="#2F5F57" stroke-width="11" stroke-linecap="round"/>
  <path d="M92 220C250 220 345 202 450 198C590 193 700 205 794.00 220" fill="none" stroke="#18AAA6" stroke-width="11" stroke-linecap="round"/>
  <circle cx="360" cy="216" r="10" fill="#FFD75F"/>
  <circle cx="794.00" cy="220" r="10" fill="#F4FBF8"/>
</svg>
