<svg xmlns="http://www.w3.org/2000/svg" viewBox="0 0 512 512" role="img" aria-labelledby="title desc">
  <title id="title">AreaForge Small App Icon Dark</title>
  <desc id="desc">A simplified dark AreaForge app icon for favicon and very small sizes.</desc>
  <defs>
    <linearGradient id="bg" x1="70" y1="54" x2="452" y2="462" gradientUnits="userSpaceOnUse">
      <stop offset="0" stop-color="#103936"/>
      <stop offset="0.55" stop-color="#08262C"/>
      <stop offset="1" stop-color="#061319"/>
    </linearGradient>
    <linearGradient id="paper" x1="158" y1="132" x2="318" y2="354" gradientUnits="userSpaceOnUse">
      <stop offset="0" stop-color="#F8FFF9"/>
      <stop offset="1" stop-color="#C7F3E8"/>
    </linearGradient>
    <linearGradient id="teal" x1="116" y1="126" x2="274" y2="392" gradientUnits="userSpaceOnUse">
      <stop offset="0" stop-color="#73F0D5"/>
      <stop offset="1" stop-color="#18AAA6"/>
    </linearGradient>
    <linearGradient id="amber" x1="299" y1="128" x2="397" y2="374" gradientUnits="userSpaceOnUse">
      <stop offset="0" stop-color="#FFD75F"/>
      <stop offset="0.44" stop-color="#FFAA35"/>
      <stop offset="1" stop-color="#F05F3D"/>
    </linearGradient>
  </defs>
  <rect x="36" y="36" width="440" height="440" rx="104" fill="url(#bg)"/>
  <path d="M176 154c-63 57-64 145 0 202" fill="none" stroke="url(#teal)" stroke-width="30" stroke-linecap="round"/>
  <path d="M336 154c63 57 64 145 0 202" fill="none" stroke="url(#amber)" stroke-width="30" stroke-linecap="round"/>
  <path d="M176 356c44 31 116 31 160 0" fill="none" stroke="url(#teal)" stroke-width="30" stroke-linecap="round"/>
  <path d="M155 166c0-17 14-31 31-31h78l46 46v132c0 17-14 31-31 31h-93c-17 0-31-14-31-31V166z" fill="url(#paper)"/>
  <path d="M264 135v46h46" fill="#D9FFF6"/>
  <path d="M166 358h180" stroke="#09272D" stroke-width="34" stroke-linecap="round"/>
  <path d="M256 154v146l80 58" fill="none" stroke="#06191F" stroke-width="25" stroke-linecap="round" stroke-linejoin="round"/>
  <circle cx="256" cy="154" r="41" fill="#FFD75F" stroke="#06191F" stroke-width="16"/>
  <circle cx="176" cy="356" r="23" fill="#5FEAD2" stroke="#06191F" stroke-width="10"/>
  <circle cx="336" cy="356" r="26" fill="#F05F3D" stroke="#06191F" stroke-width="11"/>
</svg>
