<svg xmlns="http://www.w3.org/2000/svg" viewBox="0 0 1600 520" role="img" aria-labelledby="title desc">
  <title id="title">AreaForge Mono Lockup Light</title>
  <desc id="desc">Single-color AreaForge horizontal logo with outlined wordmark.</desc>
  <svg x="90" y="50" width="420" height="420" viewBox="0 0 512 512">
    <g fill="none" stroke="#F4FBF8" stroke-linecap="round" stroke-linejoin="round">
    <rect x="72" y="72" width="368" height="368" rx="88" stroke-width="24"/>
    <path d="M176 154c-63 57-64 145 0 202" stroke-width="28"/>
    <path d="M336 154c63 57 64 145 0 202" stroke-width="28" opacity="0.74"/>
    <path d="M176 356c44 31 116 31 160 0" stroke-width="28"/>
    <path d="M155 166c0-17 14-31 31-31h78l46 46v132c0 17-14 31-31 31h-93c-17 0-31-14-31-31V166z" stroke-width="20"/>
    <path d="M256 154v146l80 58" stroke-width="24"/>
    <path d="M166 358h180" stroke-width="30"/>
  </g>
  <g fill="#F4FBF8">
    <circle cx="256" cy="154" r="34"/>
    <circle cx="176" cy="356" r="22"/>
    <circle cx="336" cy="356" r="24"/>
  </g>
  </svg>
  <g transform="translate(588 0)" fill="#F4FBF8">
    <path d="M27.888 221.088 38.304 191.744H38.528L48.608000000000004 221.088ZM29.568 172.03199999999998 -0.672 252.0H17.024L23.296 234.192H53.2L59.248000000000005 252.0H77.504L47.6 172.03199999999998ZM82.768 194.096V252.0H98.672V225.904Q98.672 221.984 99.45599999999999 218.62400000000002Q100.24 215.264 102.088 212.744Q103.936 210.224 106.96000000000001 208.768Q109.98400000000001 207.312 114.352 207.312Q115.80799999999999 207.312 117.376 207.48000000000002Q118.944 207.648 120.064 207.872V193.088Q118.16 192.528 116.592 192.528Q113.568 192.528 110.768 193.42399999999998Q107.968 194.32 105.50399999999999 195.944Q103.03999999999999 197.56799999999998 101.136 199.86399999999998Q99.232 202.16 98.112 204.848H97.888V194.096ZM165.312 216.832H139.44Q139.552 215.152 140.168 213.024Q140.784 210.89600000000002 142.296 208.99200000000002Q143.808 207.088 146.328 205.8Q148.848 204.512 152.656 204.512Q158.48 204.512 161.336 207.648Q164.192 210.784 165.312 216.832ZM139.44 226.912H181.216Q181.664 220.192 180.096 214.032Q178.528 207.872 175.0 203.056Q171.472 198.24 165.98399999999998 195.38400000000001Q160.49599999999998 192.528 153.10399999999998 192.528Q146.496 192.528 141.06400000000002 194.88Q135.632 197.232 131.712 201.32Q127.792 205.40800000000002 125.664 211.008Q123.536 216.608 123.536 223.10399999999998Q123.536 229.824 125.608 235.424Q127.67999999999999 241.024 131.488 245.05599999999998Q135.296 249.088 140.784 251.272Q146.272 253.456 153.10399999999998 253.456Q162.96 253.456 169.904 248.976Q176.848 244.496 180.208 234.07999999999998H166.208Q165.424 236.768 161.952 239.176Q158.48 241.584 153.664 241.584Q146.944 241.584 143.36 238.112Q139.776 234.64 139.44 226.912ZM189.952 211.904Q190.28799999999998 206.304 192.752 202.608Q195.216 198.912 199.024 196.67200000000003Q202.832 194.43200000000002 207.59199999999998 193.48000000000002Q212.352 192.528 217.168 192.528Q221.536 192.528 226.016 193.144Q230.49599999999998 193.76 234.19199999999998 195.552Q237.88799999999998 197.344 240.23999999999998 200.536Q242.59199999999998 203.728 242.59199999999998 208.992V239.12Q242.59199999999998 243.04 243.04 246.624Q243.488 250.208 244.608 252.0H228.48Q228.03199999999998 250.656 227.75199999999998 249.256Q227.47199999999998 247.856 227.35999999999999 246.4Q223.552 250.32 218.39999999999998 251.88799999999998Q213.248 253.456 207.87199999999999 253.456Q203.728 253.456 200.144 252.44799999999998Q196.56 251.44 193.872 249.312Q191.184 247.184 189.672 243.93599999999998Q188.16 240.688 188.16 236.208Q188.16 231.28 189.89600000000002 228.08800000000002Q191.632 224.89600000000002 194.376 222.99200000000002Q197.12 221.088 200.648 220.136Q204.176 219.184 207.76 218.624Q211.344 218.064 214.816 217.728Q218.288 217.392 220.976 216.72Q223.664 216.048 225.232 214.76Q226.8 213.472 226.688 211.008Q226.688 208.43200000000002 225.84799999999998 206.92000000000002Q225.00799999999998 205.40800000000002 223.608 204.568Q222.208 203.728 220.36 203.448Q218.512 203.168 216.384 203.168Q211.68 203.168 208.99200000000002 205.184Q206.304 207.2 205.856 211.904ZM226.688 223.664Q225.68 224.56 224.168 225.064Q222.656 225.56799999999998 220.92000000000002 225.904Q219.184 226.24 217.28 226.464Q215.376 226.688 213.47199999999998 227.024Q211.68 227.36 209.94400000000002 227.92000000000002Q208.208 228.48 206.92000000000002 229.43200000000002Q205.632 230.38400000000001 204.848 231.84Q204.064 233.296 204.064 235.536Q204.064 237.664 204.848 239.12Q205.632 240.576 206.976 241.416Q208.32 242.256 210.112 242.59199999999998Q211.904 242.928 213.808 242.928Q218.512 242.928 221.088 241.36Q223.664 239.792 224.896 237.608Q226.128 235.424 226.408 233.184Q226.688 230.944 226.688 229.6Z"/>
    <path d="M245.728 172.03199999999998V252.0H263.312V218.96H296.8V205.296H263.312V186.816H301.952V172.03199999999998ZM324.576 223.10399999999998Q324.576 219.632 325.24800000000005 216.272Q325.92 212.912 327.544 210.336Q329.168 207.76 331.856 206.136Q334.544 204.512 338.576 204.512Q342.608 204.512 345.352 206.136Q348.096 207.76 349.72 210.336Q351.344 212.912 352.01599999999996 216.272Q352.688 219.632 352.688 223.10399999999998Q352.688 226.576 352.01599999999996 229.88Q351.344 233.184 349.72 235.816Q348.096 238.448 345.352 240.01600000000002Q342.608 241.584 338.576 241.584Q334.544 241.584 331.856 240.01600000000002Q329.168 238.448 327.544 235.816Q325.92 233.184 325.24800000000005 229.88Q324.576 226.576 324.576 223.10399999999998ZM308.672 223.10399999999998Q308.672 230.048 310.8 235.648Q312.928 241.248 316.84799999999996 245.224Q320.768 249.2 326.256 251.32799999999997Q331.74399999999997 253.456 338.576 253.456Q345.408 253.456 350.952 251.32799999999997Q356.496 249.2 360.416 245.224Q364.336 241.248 366.464 235.648Q368.592 230.048 368.592 223.10399999999998Q368.592 216.16 366.464 210.50400000000002Q364.336 204.848 360.416 200.872Q356.496 196.89600000000002 350.952 194.712Q345.408 192.528 338.576 192.528Q331.74399999999997 192.528 326.256 194.712Q320.768 196.89600000000002 316.84799999999996 200.872Q312.928 204.848 310.8 210.50400000000002Q308.672 216.16 308.672 223.10399999999998ZM378.896 194.096V252.0H394.8V225.904Q394.8 221.984 395.584 218.62400000000002Q396.368 215.264 398.216 212.744Q400.064 210.224 403.088 208.768Q406.112 207.312 410.48 207.312Q411.93600000000004 207.312 413.504 207.48000000000002Q415.072 207.648 416.192 207.872V193.088Q414.288 192.528 412.72 192.528Q409.696 192.528 406.896 193.42399999999998Q404.096 194.32 401.632 195.944Q399.168 197.56799999999998 397.264 199.86399999999998Q395.36 202.16 394.24 204.848H394.016V194.096ZM449.456 238.336Q445.76 238.336 443.296 236.768Q440.832 235.2 439.32 232.736Q437.808 230.272 437.192 227.192Q436.576 224.112 436.576 220.976Q436.576 217.728 437.304 214.76Q438.032 211.792 439.65599999999995 209.49599999999998Q441.28 207.2 443.688 205.856Q446.096 204.512 449.456 204.512Q453.376 204.512 455.952 205.96800000000002Q458.528 207.424 460.096 209.888Q461.664 212.352 462.336 215.54399999999998Q463.008 218.736 463.008 222.32Q463.008 225.456 462.168 228.312Q461.328 231.168 459.648 233.40800000000002Q457.968 235.648 455.392 236.99200000000002Q452.816 238.336 449.456 238.336ZM478.128 248.304V194.096H463.008V201.824H462.784Q459.872 196.784 455.56 194.656Q451.248 192.528 445.536 192.528Q439.488 192.528 434.84000000000003 194.88Q430.192 197.232 427.05600000000004 201.208Q423.92 205.184 422.29600000000005 210.392Q420.672 215.6 420.672 221.2Q420.672 227.136 422.072 232.45600000000002Q423.472 237.776 426.496 241.752Q429.52 245.728 434.224 248.024Q438.928 250.32 445.424 250.32Q450.688 250.32 455.448 248.136Q460.20799999999997 245.952 462.784 241.36H463.008V248.976Q463.12 255.136 460.03999999999996 259.168Q456.96 263.2 450.24 263.2Q445.984 263.2 442.736 261.464Q439.488 259.728 438.368 255.248H422.576Q422.912 260.176 425.32 263.704Q427.728 267.232 431.368 269.472Q435.008 271.712 439.432 272.77599999999995Q443.856 273.84 448.112 273.84Q458.08 273.84 464.01599999999996 271.152Q469.952 268.464 473.08799999999997 264.6Q476.224 260.736 477.176 256.256Q478.128 251.776 478.128 248.304ZM529.8720000000001 216.832H504.0Q504.112 215.152 504.728 213.024Q505.344 210.89600000000002 506.856 208.99200000000002Q508.368 207.088 510.88800000000003 205.8Q513.408 204.512 517.216 204.512Q523.04 204.512 525.896 207.648Q528.7520000000001 210.784 529.8720000000001 216.832ZM504.0 226.912H545.7760000000001Q546.224 220.192 544.656 214.032Q543.088 207.872 539.56 203.056Q536.032 198.24 530.5440000000001 195.38400000000001Q525.056 192.528 517.664 192.528Q511.05600000000004 192.528 505.624 194.88Q500.192 197.232 496.27200000000005 201.32Q492.35200000000003 205.40800000000002 490.22400000000005 211.008Q488.096 216.608 488.096 223.10399999999998Q488.096 229.824 490.168 235.424Q492.24 241.024 496.048 245.05599999999998Q499.856 249.088 505.344 251.272Q510.832 253.456 517.664 253.456Q527.52 253.456 534.4639999999999 248.976Q541.408 244.496 544.768 234.07999999999998H530.768Q529.984 236.768 526.512 239.176Q523.04 241.584 518.224 241.584Q511.504 241.584 507.92 238.112Q504.336 234.64 504.0 226.912Z"/>
    <path d="M4 306H604" fill="none" stroke="#F4FBF8" stroke-width="11" stroke-linecap="round"/>
    <path d="M4 306C138 306 214 294 294 286C398 276 488 288 604 306" fill="none" stroke="#F4FBF8" stroke-width="11" stroke-linecap="round"/>
    <circle cx="222" cy="306" r="10"/>
    <circle cx="604" cy="306" r="10"/>
  </g>
</svg>
