<svg xmlns="http://www.w3.org/2000/svg" viewBox="0 0 1024 1024" role="img" aria-labelledby="title desc">
  <title id="title">AreaForge Stacked Logo Dark Background</title>
  <desc id="desc">Stacked AreaForge logo with app icon and outlined wordmark.</desc>
  <defs>
    <linearGradient id="stackedForge" x1="482.86" y1="650" x2="794.00" y2="765" gradientUnits="userSpaceOnUse">
      <stop offset="0" stop-color="#18AAA6"/>
      <stop offset="0.54" stop-color="#35D7C5"/>
      <stop offset="0.82" stop-color="#FFD75F"/>
      <stop offset="1" stop-color="#F05F3D"/>
    </linearGradient>
  </defs>
  <svg x="256" y="80" width="512" height="512" viewBox="0 0 512 512">
    <defs>
    <linearGradient id="bg" x1="70" y1="54" x2="452" y2="462" gradientUnits="userSpaceOnUse">
      <stop offset="0" stop-color="#103936"/>
      <stop offset="0.55" stop-color="#08262C"/>
      <stop offset="1" stop-color="#061319"/>
    </linearGradient>
    <linearGradient id="paper" x1="158" y1="132" x2="318" y2="354" gradientUnits="userSpaceOnUse">
      <stop offset="0" stop-color="#F8FFF9"/>
      <stop offset="1" stop-color="#C7F3E8"/>
    </linearGradient>
    <linearGradient id="teal" x1="116" y1="126" x2="274" y2="392" gradientUnits="userSpaceOnUse">
      <stop offset="0" stop-color="#73F0D5"/>
      <stop offset="1" stop-color="#18AAA6"/>
    </linearGradient>
    <linearGradient id="amber" x1="299" y1="128" x2="397" y2="374" gradientUnits="userSpaceOnUse">
      <stop offset="0" stop-color="#FFD75F"/>
      <stop offset="0.44" stop-color="#FFAA35"/>
      <stop offset="1" stop-color="#F05F3D"/>
    </linearGradient>
    <filter id="softShadow" x="-18%" y="-18%" width="136%" height="142%">
      <feDropShadow dx="0" dy="16" stdDeviation="16" flood-color="#020A0D" flood-opacity="0.28"/>
    </filter>
  </defs>

  <rect x="36" y="36" width="440" height="440" rx="104" fill="url(#bg)"/>

  <g opacity="0.12" stroke="#B9F4EB" stroke-width="3">
    <path d="M166 170h180M166 238h180M166 306h180"/>
    <path d="M188 145v220M256 145v220M324 145v220"/>
  </g>

  <path d="M176 154c-63 57-64 145 0 202" fill="none" stroke="url(#teal)" stroke-width="23" stroke-linecap="round"/>
  <path d="M336 154c63 57 64 145 0 202" fill="none" stroke="url(#amber)" stroke-width="23" stroke-linecap="round"/>
  <path d="M176 356c44 31 116 31 160 0" fill="none" stroke="url(#teal)" stroke-width="23" stroke-linecap="round"/>

  <g filter="url(#softShadow)">
    <path d="M155 166c0-17 14-31 31-31h78l46 46v132c0 17-14 31-31 31h-93c-17 0-31-14-31-31V166z" fill="url(#paper)"/>
    <path d="M264 135v46h46" fill="#D9FFF6"/>
    <path d="M187 189h58M187 229h70M187 269h48" stroke="#79BEB3" stroke-width="17" stroke-linecap="round"/>
    <circle cx="190" cy="306" r="14" fill="#62E7D0"/>
    <circle cx="233" cy="306" r="14" fill="#FFD75F"/>
    <circle cx="276" cy="306" r="14" fill="#E8F5F0"/>
  </g>

  <path d="M166 358h180" stroke="#09272D" stroke-width="28" stroke-linecap="round"/>
  <path d="M256 154v146l80 58" fill="none" stroke="#06191F" stroke-width="21" stroke-linecap="round" stroke-linejoin="round"/>
  <circle cx="256" cy="154" r="35" fill="#FFD75F" stroke="#06191F" stroke-width="15"/>
  <circle cx="176" cy="356" r="19" fill="#5FEAD2" stroke="#06191F" stroke-width="10"/>
  <circle cx="336" cy="356" r="22" fill="#F05F3D" stroke="#06191F" stroke-width="11"/>
  </svg>
  <path d="M257.888 729.088 268.304 699.744H268.528L278.608 729.088ZM259.568 680.032 229.328 760.0H247.024L253.296 742.192H283.2L289.248 760.0H307.504L277.6 680.032ZM312.76800000000003 702.096V760.0H328.672V733.904Q328.672 729.984 329.456 726.624Q330.24 723.264 332.088 720.744Q333.93600000000004 718.224 336.96000000000004 716.768Q339.98400000000004 715.312 344.35200000000003 715.312Q345.80800000000005 715.312 347.37600000000003 715.48Q348.944 715.648 350.064 715.872V701.088Q348.16 700.528 346.59200000000004 700.528Q343.56800000000004 700.528 340.76800000000003 701.424Q337.968 702.32 335.504 703.944Q333.04 705.568 331.136 707.864Q329.232 710.16 328.112 712.848H327.88800000000003V702.096ZM395.312 724.832H369.44Q369.552 723.152 370.168 721.024Q370.784 718.896 372.296 716.992Q373.808 715.088 376.328 713.8Q378.848 712.512 382.656 712.512Q388.48 712.512 391.336 715.6479999999999Q394.192 718.784 395.312 724.832ZM369.44 734.912H411.216Q411.664 728.192 410.096 722.0319999999999Q408.528 715.872 405.0 711.056Q401.47200000000004 706.24 395.98400000000004 703.384Q390.496 700.528 383.10400000000004 700.528Q376.49600000000004 700.528 371.064 702.88Q365.632 705.232 361.712 709.3199999999999Q357.79200000000003 713.408 355.664 719.008Q353.536 724.608 353.536 731.104Q353.536 737.824 355.608 743.424Q357.68 749.024 361.488 753.056Q365.296 757.088 370.784 759.2719999999999Q376.272 761.456 383.10400000000004 761.456Q392.96000000000004 761.456 399.904 756.976Q406.848 752.496 410.208 742.08H396.208Q395.42400000000004 744.768 391.952 747.1759999999999Q388.48 749.584 383.664 749.584Q376.944 749.584 373.36 746.112Q369.776 742.64 369.44 734.912ZM419.952 719.904Q420.288 714.304 422.752 710.608Q425.216 706.912 429.024 704.672Q432.832 702.432 437.592 701.48Q442.35200000000003 700.528 447.168 700.528Q451.536 700.528 456.016 701.144Q460.49600000000004 701.76 464.192 703.552Q467.88800000000003 705.344 470.24 708.5360000000001Q472.59200000000004 711.728 472.59200000000004 716.992V747.12Q472.59200000000004 751.04 473.04 754.624Q473.488 758.208 474.608 760.0H458.48Q458.03200000000004 758.656 457.75200000000007 757.256Q457.47200000000004 755.856 457.36 754.4Q453.552 758.32 448.40000000000003 759.888Q443.24800000000005 761.456 437.872 761.456Q433.728 761.456 430.144 760.4480000000001Q426.56 759.44 423.872 757.312Q421.184 755.184 419.672 751.9359999999999Q418.16 748.688 418.16 744.208Q418.16 739.28 419.896 736.088Q421.632 732.896 424.376 730.992Q427.12 729.088 430.648 728.136Q434.17600000000004 727.184 437.76000000000005 726.624Q441.34400000000005 726.064 444.81600000000003 725.7280000000001Q448.288 725.392 450.976 724.72Q453.66400000000004 724.048 455.232 722.76Q456.8 721.472 456.68800000000005 719.008Q456.68800000000005 716.432 455.84800000000007 714.9200000000001Q455.00800000000004 713.408 453.60800000000006 712.568Q452.208 711.728 450.36 711.448Q448.512 711.168 446.384 711.168Q441.68 711.168 438.992 713.184Q436.30400000000003 715.2 435.856 719.904ZM456.68800000000005 731.664Q455.68 732.56 454.168 733.064Q452.656 733.568 450.92 733.904Q449.184 734.24 447.28000000000003 734.4639999999999Q445.37600000000003 734.688 443.47200000000004 735.024Q441.68 735.36 439.944 735.9200000000001Q438.208 736.48 436.92 737.432Q435.632 738.384 434.848 739.84Q434.064 741.296 434.064 743.5360000000001Q434.064 745.664 434.848 747.12Q435.632 748.576 436.976 749.4159999999999Q438.32000000000005 750.256 440.112 750.592Q441.904 750.928 443.808 750.928Q448.512 750.928 451.088 749.36Q453.66400000000004 747.792 454.8960000000001 745.608Q456.12800000000004 743.424 456.408 741.184Q456.68800000000005 738.944 456.68800000000005 737.6Z" fill="#F4FBF8"/>
  <path d="M490.592 680.032V760.0H508.176V726.96H541.664V713.296H508.176V694.816H546.816V680.032ZM569.4399999999999 731.104Q569.4399999999999 727.632 570.112 724.2719999999999Q570.784 720.912 572.4079999999999 718.336Q574.0319999999999 715.76 576.72 714.136Q579.408 712.512 583.4399999999999 712.512Q587.472 712.512 590.2159999999999 714.136Q592.9599999999999 715.76 594.584 718.336Q596.208 720.912 596.88 724.2719999999999Q597.552 727.632 597.552 731.104Q597.552 734.576 596.88 737.88Q596.208 741.184 594.584 743.816Q592.9599999999999 746.448 590.2159999999999 748.016Q587.472 749.584 583.4399999999999 749.584Q579.408 749.584 576.72 748.016Q574.0319999999999 746.448 572.4079999999999 743.816Q570.784 741.184 570.112 737.88Q569.4399999999999 734.576 569.4399999999999 731.104ZM553.536 731.104Q553.536 738.048 555.664 743.648Q557.7919999999999 749.248 561.712 753.224Q565.632 757.2 571.1199999999999 759.328Q576.608 761.456 583.4399999999999 761.456Q590.2719999999999 761.456 595.816 759.328Q601.36 757.2 605.28 753.224Q609.1999999999999 749.248 611.328 743.648Q613.456 738.048 613.456 731.104Q613.456 724.16 611.328 718.5039999999999Q609.1999999999999 712.848 605.28 708.872Q601.36 704.896 595.816 702.712Q590.2719999999999 700.528 583.4399999999999 700.528Q576.608 700.528 571.1199999999999 702.712Q565.632 704.896 561.712 708.872Q557.7919999999999 712.848 555.664 718.5039999999999Q553.536 724.16 553.536 731.104ZM623.76 702.096V760.0H639.664V733.904Q639.664 729.984 640.448 726.624Q641.232 723.264 643.0799999999999 720.744Q644.928 718.224 647.952 716.768Q650.976 715.312 655.3439999999999 715.312Q656.8 715.312 658.3679999999999 715.48Q659.936 715.648 661.056 715.872V701.088Q659.152 700.528 657.584 700.528Q654.56 700.528 651.76 701.424Q648.96 702.32 646.4960000000001 703.944Q644.032 705.568 642.1279999999999 707.864Q640.2239999999999 710.16 639.104 712.848H638.88V702.096ZM694.3199999999999 746.336Q690.624 746.336 688.1600000000001 744.768Q685.696 743.2 684.184 740.7360000000001Q682.672 738.272 682.056 735.192Q681.4399999999999 732.112 681.4399999999999 728.976Q681.4399999999999 725.728 682.1679999999999 722.76Q682.896 719.792 684.52 717.4960000000001Q686.144 715.2 688.5519999999999 713.856Q690.9599999999999 712.512 694.3199999999999 712.512Q698.24 712.512 700.816 713.968Q703.3919999999999 715.424 704.96 717.8879999999999Q706.528 720.352 707.2 723.544Q707.872 726.736 707.872 730.32Q707.872 733.456 707.0319999999999 736.312Q706.192 739.168 704.512 741.408Q702.832 743.648 700.256 744.992Q697.68 746.336 694.3199999999999 746.336ZM722.992 756.304V702.096H707.872V709.824H707.648Q704.736 704.784 700.424 702.656Q696.112 700.528 690.4 700.528Q684.352 700.528 679.704 702.88Q675.0559999999999 705.232 671.92 709.208Q668.784 713.184 667.16 718.392Q665.536 723.6 665.536 729.2Q665.536 735.136 666.9359999999999 740.4559999999999Q668.336 745.776 671.36 749.752Q674.384 753.728 679.088 756.024Q683.7919999999999 758.32 690.288 758.32Q695.552 758.32 700.312 756.136Q705.072 753.952 707.648 749.36H707.872V756.976Q707.9839999999999 763.136 704.904 767.168Q701.824 771.2 695.1039999999999 771.2Q690.848 771.2 687.5999999999999 769.4639999999999Q684.352 767.728 683.232 763.248H667.4399999999999Q667.776 768.176 670.184 771.704Q672.592 775.232 676.232 777.472Q679.872 779.712 684.296 780.7760000000001Q688.72 781.84 692.976 781.84Q702.944 781.84 708.88 779.152Q714.816 776.4639999999999 717.952 772.5999999999999Q721.088 768.736 722.04 764.256Q722.992 759.776 722.992 756.304ZM774.736 724.832H748.864Q748.976 723.152 749.592 721.024Q750.208 718.896 751.72 716.992Q753.232 715.088 755.752 713.8Q758.2719999999999 712.512 762.08 712.512Q767.904 712.512 770.76 715.6479999999999Q773.616 718.784 774.736 724.832ZM748.864 734.912H790.64Q791.088 728.192 789.52 722.0319999999999Q787.952 715.872 784.424 711.056Q780.896 706.24 775.4079999999999 703.384Q769.92 700.528 762.528 700.528Q755.92 700.528 750.488 702.88Q745.056 705.232 741.136 709.3199999999999Q737.216 713.408 735.088 719.008Q732.96 724.608 732.96 731.104Q732.96 737.824 735.032 743.424Q737.104 749.024 740.912 753.056Q744.72 757.088 750.2080000000001 759.2719999999999Q755.696 761.456 762.528 761.456Q772.384 761.456 779.328 756.976Q786.2719999999999 752.496 789.632 742.08H775.632Q774.848 744.768 771.376 747.1759999999999Q767.904 749.584 763.088 749.584Q756.3679999999999 749.584 752.784 746.112Q749.2 742.64 748.864 734.912Z" fill="url(#stackedForge)"/>
  <path d="M230.00 825H794.00" stroke="#2F5F57" stroke-width="11" stroke-linecap="round"/>
  <path d="M230.00 825C375.00 825 465.00 807 560.00 803C680.00 798 775.00 810 794.00 825" fill="none" stroke="#18AAA6" stroke-width="11" stroke-linecap="round"/>
  <circle cx="495.00" cy="821" r="10" fill="#FFD75F"/>
  <circle cx="794.00" cy="825" r="10" fill="#F4FBF8"/>
</svg>
